# xmcd
#
# Track frame offsets: 
#        150
#        14085
#        28055
#        52122
#        67060
#        82287
#        105000
#        127267
#        142165
#
# Disc length: 2158 seconds
#
# Revision: 1
# Processed by: cddbd v1.5.2PL0 Copyright (c) Steve Scherf et al.
# Submitted via: ExactAudioCopy v0.95a5
#
DISCID=8b086c09
DTITLE=The Three Sounds - Hey There
DYEAR=1961
DGENRE=Jazz
TTITLE0=Sermonette
TTITLE1=You Are My Sunshine
TTITLE2=Little Girl Blue
TTITLE3=Dap's Groove
TTITLE4=Hey There
TTITLE5=Nothin' But The Blues
TTITLE6=Stompin' At The Savoy
TTITLE7=Steet Of Dreams
TTITLE8=The Masquerade Is Over
EXTD=
EXTT0=
EXTT1=
EXTT2=
EXTT3=
EXTT4=
EXTT5=
EXTT6=
EXTT7=
EXTT8=
PLAYORDER=
